<?xml version="1.0" encoding="UTF-8"?>
<svg xmlns="http://www.w3.org/2000/svg"
     width="1536"
     height="1024"
     viewBox="0 0 1536 1024"
     role="img"
     aria-label="UDTYPE vector alphabet">
  <path d="M327 864L335 859L346 844L337 821L337 814L334 810L345 808L355 801L356 790L354 786L358 776L364 771L364 767L354 753L342 741L337 741L322 731L304 724L295 742L289 804L293 805L295 803L293 789L300 792L306 785L306 768L302 751L302 745L305 744L305 740L311 740L323 751L326 750L324 749L322 741L327 742L334 748L332 758L336 762L336 765L332 778L332 788L334 789L334 784L345 786L342 790L336 791L320 788L314 785L314 783L306 785L308 786L306 801L321 805L325 807L325 811L329 811L329 813L312 818L321 840L299 840L294 838L292 834L291 809L287 809L287 807L283 808L283 828L286 843L290 847L302 855Z M1435 861L1436 852Z M521 860L524 860L524 856L516 843L512 840L518 833L488 818L493 816L493 808L484 797L479 785L477 785L473 789L473 795L481 820L470 822L470 824L484 837L510 853L521 857Z M1282 859L1284 858L1284 801L1291 810L1301 812L1297 803L1286 790L1291 789L1291 786L1289 778L1284 777L1286 767L1285 747L1277 748L1280 749L1279 763L1273 751L1274 749L1262 750L1265 751L1265 753L1261 761L1257 785L1258 811L1277 807L1270 848L1274 851L1276 849Z M1432 858L1433 847L1430 837L1432 828L1430 803L1431 786L1418 759L1418 755L1423 755L1424 748L1415 736L1410 733L1412 827L1424 830L1428 829L1429 831L1406 841L1406 844L1402 845L1400 850Z M654 857L664 856L668 845L671 840L676 839L678 832L700 831L710 828L721 817L730 785L726 775L721 769L707 755L697 750L684 735L680 737L676 751L646 750L642 738L636 736L637 731L632 726L629 740L627 740L626 750L631 751L632 755L635 757L635 768L645 770L649 763L654 761L649 768L649 771L652 771L652 773L639 780L643 787L643 797L640 797L635 802L633 809L636 818L648 825L642 824L639 827L638 833L649 828L649 826L663 829Z M1011 857L1027 857L1014 832L1012 824L1009 822L981 818L969 800L961 803L960 806L968 815L962 816L966 827L966 835L976 834L983 836L997 847L1006 851Z M843 855L862 854L862 842L858 830L849 831L832 827L835 813L832 802L826 802L825 824L817 821L811 814L802 816L798 819L795 828L797 834L828 851Z M1135 848L1146 847L1139 843L1122 824L1126 822L1130 813L1118 813L1115 799L1115 784L1108 787L1107 798L1112 810L1117 813L1097 810L1096 806L1103 789L1109 781L1116 778L1119 767L1121 766L1121 768L1123 768L1122 764L1128 761L1136 760L1143 762L1152 766L1152 768L1149 767L1147 769L1157 770L1156 768L1158 768L1166 773L1168 777L1173 777L1174 761L1169 752L1153 736L1148 739L1145 745L1138 741L1123 737L1116 738L1106 744L1102 743L1094 768L1093 786L1095 794L1094 800L1096 803L1094 810L1101 816L1104 825L1112 835L1125 844Z M130 841L145 833L144 827L148 817L147 812L152 803L151 795L141 794L142 801L140 801L127 794L124 790L138 790L138 787L157 787L157 784L152 778L131 774L128 764L114 740L111 740L114 743L93 743L98 750L109 758L112 769L103 769L103 777L117 788L115 792Z M157 834L163 828L173 808L167 815L161 817L155 828Z M472 829L473 827L468 824L466 816L466 798L470 786L475 780L472 757L478 742L475 742L466 749L469 756L461 753L453 763L451 763L453 751L454 748L458 746L454 745L450 765L446 769L453 798L463 814L465 823Z M519 828L527 826L526 823L516 826Z M1400 827L1402 825L1400 825Z M1334 818L1336 818L1337 811L1330 790L1331 784L1328 779L1324 754L1318 751L1312 744L1307 743L1306 778L1295 768L1295 779L1298 782L1300 790L1307 789L1317 812L1320 815Z M693 811L708 807L678 810L676 785L671 785L663 776L663 772L672 772L672 770L669 769L667 764L661 764L660 762L671 763L693 773L705 782L717 795L720 803L718 808Z M834 808L836 808L836 804Z M709 807L716 806L716 804Z M852 807L856 807L862 791L873 792L864 785L867 766L863 768L863 765L859 761L859 770L861 770L859 781L848 775L835 778L835 748L834 744L829 740L824 743L821 752L815 760L815 768L819 769L824 755L827 754L826 778L780 782L789 793L814 798L815 800L821 799L811 793L810 789L807 787L808 783L829 801L831 801L837 788L856 790L849 804L849 806Z M657 804L654 802L659 802Z M979 805L982 804L983 798L971 800Z M164 798L178 794L182 787L185 789L183 786L184 781L189 773L194 758L199 752L201 743L182 744L173 764L170 768L167 768L165 779L161 780L162 785L159 790L161 790L160 796Z M953 797L965 795L972 789L984 788L987 786L993 788L995 786L992 783L983 785L981 781L983 778L983 766L987 750L991 752L992 757L992 752L995 751L995 734L998 724L993 724L995 726L976 734L976 751L967 761L963 771L957 773L953 778L953 785L950 791Z M1139 797L1162 795L1177 791L1178 781L1146 774L1132 774L1135 779L1153 784L1140 792L1138 794Z M945 783L947 783L950 778L945 781Z M950 775L951 773L961 770L951 770Z M536 767L538 766L536 765Z M532 765L534 765L534 763L522 745L518 733L483 734L483 736L486 735L485 748L483 750L484 761L501 758L507 755L513 758L524 759Z M1435 760L1441 725L1428 726L1428 730L1430 731L1429 750Z M194 742L196 741L189 737L183 737L182 739L183 741L184 738L188 738Z M1322 738L1323 733L1320 732Z M1313 735L1319 732L1314 731Z M639 724L651 723L639 722Z M137 611L142 609L147 589L147 566L155 547L158 550L155 552L156 565L152 586L173 581L175 544L167 543L160 532L170 513L171 497L158 484L148 479L132 481L123 486L117 484L115 486L115 498L112 502L112 509L120 509L124 506L146 502L146 510L151 516L152 527L142 526L148 529L148 531L146 534L144 570L137 598Z M278 610L280 610L281 607L284 573L287 562L287 557L285 557L284 552L289 543L297 552L295 560L297 557L301 557L318 568L331 571L332 576L338 581L337 584L327 580L312 569L309 568L309 570L324 584L336 592L341 600L349 599L349 597L338 574L328 569L309 553L306 553L303 548L292 539L294 538L292 537L292 532L295 517L299 510L300 498L273 487L271 507L275 523L273 533L281 546L281 552L275 560L272 561L273 600Z M1265 610L1275 601L1281 587L1282 590L1287 588L1288 581L1291 578L1289 575L1299 576L1316 570L1325 541L1322 532L1311 519L1309 512L1326 481L1325 479L1317 484L1317 492L1311 495L1307 512L1307 502L1316 485L1303 490L1300 489L1300 492L1296 496L1294 506L1287 503L1286 507L1288 509L1276 507L1277 502L1273 499L1257 507L1256 517L1262 530L1271 533L1272 528L1270 524L1285 524L1294 529L1298 529L1313 549L1312 564L1301 566L1290 563L1278 551L1270 536L1265 535L1264 532L1260 533L1257 539L1258 542L1252 549L1255 555L1261 560L1257 565L1264 563L1277 570L1269 594L1265 600L1263 607Z M428 609L441 606L443 602L450 560L451 556L454 554L454 531L450 527L456 525L456 518L460 508L466 511L483 510L482 514L484 516L501 515L512 505L516 504L519 501L518 498L508 495L461 494L455 500L451 494L444 494L438 517L439 527L436 527L435 531Z M590 609L593 609L597 603L601 603L605 600L606 594L626 557L627 550L625 541L632 536L636 536L641 529L653 537L647 549L649 570L652 570L656 566L666 582L675 589L698 509L691 505L680 494L675 492L663 519L669 539L669 544L667 546L657 538L661 523L656 509L655 496L653 493L647 494L644 492L643 494L646 495L640 501L628 521L624 524L623 530L603 558L590 542L589 530L591 530L599 540L606 542L607 528L604 524L607 523L608 520L610 494L588 493L589 500L584 538L585 578L583 583L586 584Z M1132 609L1149 608L1166 603L1176 563L1164 553L1148 544L1130 541L1131 517L1134 516L1138 519L1140 509L1133 500L1133 492L1110 488L1114 547L1109 549L1096 562L1096 567L1097 569L1112 570L1117 573L1105 582L1098 591L1114 602Z M1002 607L1005 607L1009 601L1007 591L1011 589L1014 582L1017 583L1022 572L1025 558L1026 541L1022 527L1015 516L1013 516L1012 521L1014 522L1017 537L1004 531L994 529L997 537L1001 539L1003 580L1002 582L997 582L995 579L988 583L990 583L990 588L999 593L998 603Z M1418 604L1435 603L1445 580L1447 561L1443 556L1412 549L1412 543L1409 542L1409 540L1414 537L1415 512L1421 489L1393 481L1393 526L1391 528L1399 531L1404 543L1391 553L1392 597L1394 599L1399 597L1408 602Z M1155 598L1136 588L1134 586L1136 584L1135 582L1129 582L1120 574L1124 571L1144 569L1137 558L1135 558L1132 563L1135 548L1149 553L1160 562L1145 566L1144 568L1164 567L1164 569L1167 570L1163 594Z M1417 597L1402 592L1406 584L1410 581L1412 574L1416 576L1413 578L1415 583L1425 594L1425 596Z M969 588L982 587L983 585L977 584L975 581L934 559L932 560L934 566L933 581L938 584L946 585L943 580L937 576L935 572L936 568L947 578L951 585Z M788 586L790 586L791 583L806 578L812 571L817 546L824 544L830 532L834 515L838 517L841 512L845 512L853 520L852 506L838 491L835 490L817 497L817 508L790 558L788 558L789 539L787 515L789 491L785 490L775 504L771 537L775 548L783 553L780 561L777 561L770 557L767 550L766 563L767 568L770 571L774 568L778 577L787 583Z M1423 579L1419 574L1428 571Z M840 578L846 577L853 564L853 533L851 533L849 527L845 528L843 534L838 535Z M768 573L770 573L770 571Z M967 570L970 570L965 547L968 522L971 522L977 513L981 516L988 514L991 517L990 519L995 519L999 516L999 511L1002 513L1006 512L1004 507L986 493L973 494L961 499L957 498L947 510L940 513L941 538L947 550L948 557Z M161 548L163 544L167 544Z M312 548L316 548L324 542L331 527L336 527L338 529L340 524L354 516L354 514L339 507L331 519L323 521L319 525L318 532L310 545Z M302 542L306 542L307 540L301 540Z M1418 541L1432 539L1450 516L1451 507L1458 501L1458 507L1467 493L1463 491L1457 498L1442 507L1439 514L1431 521L1422 535L1418 538Z M1417 533L1419 533L1421 529Z M106 519L111 512L102 510L103 500L97 504L93 504L93 507L97 508Z M1010 507L1014 505L1013 503L1008 499L1001 499L1007 502Z M433 506L435 506L435 498L433 498Z M338 505L344 499L342 499Z M1303 486L1307 482L1312 483L1318 481L1306 480Z M369 361L375 361L374 355L361 353L348 348L357 346L368 347L370 335L375 335L375 333L356 332L334 328L336 325L330 326L324 324L327 323L337 311L344 282L348 248L346 248L342 227L338 223L326 241L326 252L324 255L325 266L322 278L322 293L319 298L318 323L294 316L312 322L309 325L299 328L291 318L293 315L286 315L267 309L265 311L284 336L294 338L307 345L313 346L315 349L329 346L340 347L336 349L338 353Z M1057 355L1065 350L1077 338L1082 337L1091 330L1089 322L1084 322L1079 327L1080 331L1075 324L1076 321L1085 321L1084 313L1081 310L1083 302L1072 292L1069 285L1062 289L1054 299L1054 302L1056 301L1058 303L1067 316L1063 320L1062 326L1064 328L1054 346Z M137 354L151 351L156 348L160 349L170 335L170 333L162 333L154 337L150 324L141 314L186 275L184 266L181 266L182 269L151 285L130 305L126 303L121 308L117 309L120 309L119 332L121 338L130 340L130 347Z M313 353L314 351L310 350Z M804 347L811 341L817 330L826 294L828 292L826 265L828 262L832 262L833 257L845 272L846 280L871 290L870 287L866 287L861 283L858 274L857 254L851 244L847 242L848 238L844 230L837 223L835 223L831 229L838 237L839 242L835 242L835 240L831 238L820 239L814 246L818 259L815 263L811 280L802 279L801 292L804 293L808 299L811 310L811 324L807 334L805 335L802 297L795 296L793 300L791 327L796 337L801 339Z M611 344L626 335L644 268L648 270L650 275L655 266L655 262L649 260L641 266L640 251L644 245L644 241L640 242L623 303L620 310L617 312L618 314L620 311L623 311L620 313L615 323Z M1169 343L1189 337L1194 333L1197 327L1196 311L1199 313L1203 313L1204 311L1210 282L1189 302L1185 314L1170 320L1172 322L1166 326Z M463 342L466 342L467 316L465 316L465 319L464 316L466 315L468 304L471 266L463 263L455 256L453 260L449 262L447 270L448 307L453 316L453 324L449 326L449 332L450 336L454 336Z M1363 339L1368 339L1370 337L1435 336L1432 325L1416 313L1429 311L1431 309L1438 311L1438 309L1434 307L1429 309L1406 287L1407 281L1404 281L1404 284L1396 283L1400 282L1396 275L1398 272L1394 267L1387 269L1376 254L1373 242L1362 230L1365 222L1358 223L1355 220L1356 218L1349 218L1349 221L1353 219L1352 222L1350 222L1349 225L1343 226L1345 230L1345 239L1370 270L1367 277L1375 281L1388 282L1389 287L1382 286L1391 292L1385 307L1385 314L1381 314L1383 317L1376 315L1360 315L1358 313L1348 314Z M130 336L127 334L129 329Z M1255 337L1257 337L1257 332L1255 330L1253 318L1243 298L1230 285L1231 283L1229 281L1226 280L1226 282L1221 284L1219 280L1215 278L1217 276L1211 276L1212 279L1210 282L1212 292L1214 296L1216 294L1219 295L1229 329Z M531 336L533 336L537 272L537 270L533 268L532 260L528 261L521 270L511 269L500 261L491 265L495 254L498 252L527 255L532 257L533 260L534 256L529 255L526 243L511 228L506 228L504 232L506 236L487 225L458 234L459 231L455 230L454 237L456 236L456 238L459 239L455 248L455 255L461 252L467 254L478 252L481 254L482 263L488 260L489 267L495 268L512 280L519 281L519 279L525 278L524 294L515 316L515 331L521 333L522 325L524 324L527 326Z M446 334L448 334L448 331Z M1022 332L1026 332L1029 329L1028 318L1030 314L1044 302L1047 302L1046 309L1048 309L1053 301L1060 286L1059 278L1064 272L1070 252L1073 250L1080 252L1086 244L1084 241L1078 241L1080 236L1079 230L1075 231L1067 238L1061 237L1060 251L1052 257L1049 263L1046 262L1044 266L1042 266L1041 251L1031 241L1028 242L1025 240L1008 225L1003 218L1001 218L1001 221L1017 249L1018 261L1022 266L1028 268L1035 279L1017 305L1010 309L1011 313L1001 328L1003 330Z M856 328L878 322L886 322L889 319L898 321L904 325L904 296L907 292L910 279L914 243L914 234L910 227L903 232L900 238L886 253L883 253L883 257L872 269L875 276L874 280L877 284L891 278L898 271L897 280L899 287L896 290L896 301L868 322L861 326L858 325Z M906 328L907 318Z M1421 326L1397 321L1388 317L1400 315L1402 301L1404 300L1414 311L1414 314L1427 325Z M724 325L726 324L725 320Z M713 323L715 323L715 321Z M614 321L616 316Z M718 316L721 315L715 305L715 302L717 302L716 300L709 300L702 297L685 284L690 283L699 285L702 284L702 282L695 271L687 264L686 251L676 242L668 229L669 226L664 224L661 218L658 217L650 229L650 239L653 242L658 257L656 262L667 275L677 293L684 295L691 301Z M1435 316L1437 314L1431 310Z M109 314L114 311Z M337 277L332 267L331 257L342 252Z M1202 278L1208 278L1211 275L1214 265L1216 264L1216 250L1219 252L1214 243L1216 214L1204 217L1204 230L1198 237L1195 246L1192 247L1192 268L1191 265L1188 265L1190 269L1198 268L1198 272L1202 275Z M866 275L868 275L868 273L865 271Z M110 272L115 272L134 263L137 254L128 250L128 247L130 247L135 240L152 248L164 259L166 258L173 263L185 254L183 243L159 224L157 225L148 220L134 218L142 217L152 220L142 215L116 218L114 221L118 220L116 221L115 230L121 247L119 246L116 252L119 259L110 266Z M1406 253L1423 251L1445 238L1446 233L1431 227L1397 224L1385 221L1385 224L1382 224L1375 232L1377 244L1393 245L1393 252L1395 251L1395 246L1406 246L1408 248L1403 250L1403 252Z M516 251L512 248L509 240L518 247L519 251Z M348 248L349 242Z M1014 227L1015 225L1010 223Z M157 224L158 222L156 222Z" fill="#000" fill-rule="evenodd" stroke="none"/>
</svg>